<?xml version="1.0" encoding="utf-8"?>
<!-- Generator: Adobe Illustrator 27.4.1, SVG Export Plug-In . SVG Version: 6.00 Build 0)  -->
<svg version="1.1" id="Layer_1" xmlns="http://www.w3.org/2000/svg" xmlns:xlink="http://www.w3.org/1999/xlink" x="0px" y="0px"
	 viewBox="0 0 841.9 595.3" style="enable-background:new 0 0 841.9 595.3;" xml:space="preserve">
<style type="text/css">
	.st0{fill:#E5F4F3;}
	.st1{fill:#BEE5EB;}
	.st2{fill:#A0DBE6;}
	.st3{fill:#6DC4D8;}
	.st4{fill:#04243E;}
	.st5{fill:#116483;}
	.st6{fill:#48BFB1;}
	.st7{fill:#0DAAA6;}
	.st8{opacity:0.6;}
	.st9{fill:#F1F9F9;}
	.st10{fill:#F2F4DC;}
	.st11{fill:#D94026;}
	.st12{fill:#147B99;}
	.st13{fill:#AE2C24;}
</style>
<g>
	<path class="st0" d="M606.9,522.8V182.9c0-89.1-71.1-161.6-159.7-161.6H378c-87.8,0-158.8,72.5-158.8,161.6v339.8h387.7V522.8z"/>
	<path class="st1" d="M447.3,21.3h-69.2c-17.6,0-29.5,2.7-48,7.4v494.1h277.1V182.9C606.9,93.8,534.9,21.3,447.3,21.3z"/>
	<g>
		<path class="st2" d="M606.9,522.8V182.9c0-89.1-72.1-161.6-159.7-161.6H378c-17.6,0-32.4,2.7-48,7.4"/>
		<path class="st2" d="M518.3,219.1c0,59.5-48,106.8-106.2,106.8c-59.1,0-106.2-48.3-106.2-106.8c0-59.5,48-106.8,106.2-106.8
			C471.1,112.3,518.3,160.6,518.3,219.1z"/>
	</g>
	<g>
		<path class="st3" d="M477.6,333.4c0,35.3-29.5,64.1-64.6,64.1l0,0c-35.1,0-64.6-28.8-64.6-64.1V207.9c0-35.3,29.5-64.1,64.6-64.1
			l0,0c35.1,0,64.6,28.8,64.6,64.1V333.4z"/>
		<rect x="385.4" y="197.7" class="st3" width="55.4" height="325.1"/>
	</g>
	<path class="st4" d="M551.6,202.3c0,23.1-18.4,41.8-41.6,41.8H306.9c-23,0-41.6-18.5-41.6-41.8l0,0c0-23.1,18.4-41.8,41.6-41.8H510
		C533.2,160.6,551.6,179.2,551.6,202.3L551.6,202.3z"/>
	<path class="st5" d="M551.6,202.3c0,23.1-18.4,41.8-41.6,41.8H306.9c-23,0-41.6-18.5-41.6-41.8l0,0c0-23.1,18.4-41.8,41.6-41.8H510
		C533.2,160.6,551.6,179.2,551.6,202.3L551.6,202.3z"/>
	<path class="st4" d="M513.7,169.9H310.6c-21.3,0-45.3,10.3-45.3,32.6c0,21.4,15.7,41.8,45.3,41.8h203.1c21.3,0,37.8-17.7,37.8-39.1
		S535.9,169.9,513.7,169.9z"/>
	<path class="st5" d="M518.3,194.9c0,59.5-48,106.8-106.2,106.8c-59.1,0-106.2-48.3-106.2-106.8c0-59.5,48-106.8,106.2-106.8
		C471.1,88.2,518.3,135.5,518.3,194.9z"/>
	<path class="st4" d="M337.4,119.7c41.6-41.8,108.9-41.8,150.5,0s41.6,109.5,0,151.3"/>
	<path class="st6" d="M486,194.9c0,40.8-32.4,73.3-72.9,73.3s-72.9-32.6-72.9-73.3s33.2-73.3,72.9-73.3S486,154.1,486,194.9z"/>
	<path class="st7" d="M412.2,121.6c40.6,0,72.9,32.6,72.9,73.3s-32.4,73.3-72.9,73.3"/>
	<g class="st8">
		<path class="st6" d="M379,161.5c18.4-18.5,48-18.5,66.5,0s18.4,48.3,0,66.8s-48,18.5-66.5,0C360.4,209.8,360.4,180,379,161.5z"/>
		<path class="st7" d="M379,228.3c-18.4-18.5-18.4-48.3,0-66.8s48-18.5,66.5,0"/>
	</g>
	<g class="st8">
		<path class="st6" d="M379,228.3c-18.4-18.5-18.4-48.3,0-66.8s48-18.5,66.5,0s18.4,48.3,0,66.8S397.4,247,379,228.3z"/>
		<path class="st7" d="M445.4,228.3c-18.4,18.5-48,18.5-66.5,0s-18.4-48.3,0-66.8"/>
	</g>
	<g>
		<path class="st9" d="M408.4,175.4c0,8.4-6.5,15.8-15.7,15.8c-8.3,0-15.7-6.5-15.7-15.8s8.3-14.9,16.7-14.9
			C402,160.6,408.4,167.2,408.4,175.4z"/>
		<path class="st9" d="M427.9,205.2c0,0.9-0.9,1.9-1.9,1.9c-0.9,0-1.9-0.9-1.9-1.9s0.9-1.9,1.9-1.9
			C426.8,202.3,427.9,204.2,427.9,205.2z"/>
		<path class="st9" d="M444.4,219.9c0,3.8-2.7,6.5-6.5,6.5c-3.7,0-6.5-2.7-6.5-6.5s2.7-6.5,6.5-6.5
			C441.7,213.6,444.4,216.3,444.4,219.9z"/>
	</g>
	<g>
		<path class="st10" d="M402,106.7c0,1.9-0.9,2.7-2.7,2.7s-2.7-0.9-2.7-2.7c0-1.9,0.9-2.7,2.7-2.7S402,105.8,402,106.7z"/>
		<path class="st10" d="M414.9,106.7c0,1.9-0.9,2.7-2.7,2.7s-2.7-0.9-2.7-2.7c0-1.9,0.9-2.7,2.7-2.7
			C413.9,103.9,414.9,105.8,414.9,106.7z"/>
		<path class="st10" d="M428.7,106.7c0,1.9-0.9,2.7-2.7,2.7s-2.7-0.9-2.7-2.7c0-1.9,0.9-2.7,2.7-2.7
			C426.8,103.9,428.7,105.8,428.7,106.7z"/>
		<path class="st10" d="M402,289.7c0,1.9-0.9,2.7-2.7,2.7s-2.7-0.9-2.7-2.7s0.9-2.7,2.7-2.7S402,288.7,402,289.7z"/>
		<ellipse class="st10" cx="412.2" cy="289.7" rx="2.7" ry="2.7"/>
		<ellipse class="st10" cx="426" cy="289.7" rx="2.7" ry="2.7"/>
	</g>
	<g>
		<ellipse class="st11" cx="412.2" cy="59.4" rx="10.2" ry="10.3"/>
		<path class="st11" d="M695.5,532c0,16.8,14.8,27.9-1.9,27.9H132.4c-16.7,0-1.9-11.1-1.9-27.9l0,0c0-16.8,12.9-27.9,29.5-27.9
			h505.9C681.7,504.3,695.5,515.4,695.5,532L695.5,532z"/>
	</g>
	<path id="SVGCleanerId_0" class="st4" d="M505.4,336.1c-35.1-36.2-71.1-27.9-92.4-18.5c-21.3-9.3-57.3-17.7-92.4,18.5
		c-52.7,54.8-85,165.4-196.6,103c0,0,55.4,58.4,121,20.4c64.6-38,103.4-111.4,134.8-111.4c21.3,0,27.8,5.7,33.2,4.6
		c5.6,0.9,11.9-4.6,33.2-4.6c31.4,0,70.2,73.3,134.8,111.4c64.6,38,121-20.4,121-20.4C590.2,500.5,558,390.8,505.4,336.1z"/>
	<g>
		<path id="SVGCleanerId_0_1_" class="st4" d="M505.4,336.1c-35.1-36.2-71.1-27.9-92.4-18.5c-21.3-9.3-57.3-17.7-92.4,18.5
			c-52.7,54.8-85,165.4-196.6,103c0,0,55.4,58.4,121,20.4c64.6-38,103.4-111.4,134.8-111.4c21.3,0,27.8,5.7,33.2,4.6
			c5.6,0.9,11.9-4.6,33.2-4.6c31.4,0,70.2,73.3,134.8,111.4c64.6,38,121-20.4,121-20.4C590.2,500.5,558,390.8,505.4,336.1z"/>
	</g>
	<path class="st12" d="M181.3,469.8c68.3,2.7,97-77.1,139.4-120.6c35.1-36.2,71.1-27.9,92.4-18.5c21.3-9.3,57.3-17.7,92.4,18.5
		c42.4,44.6,72.1,124.4,139.4,120.6c33.2-7.4,56.4-30.7,56.4-30.7c-110.8,61.4-143.1-48.3-195.8-103c-35.1-36.2-71.1-27.9-92.4-18.5
		c-21.3-9.3-57.3-17.7-92.4,18.5c-52.7,54.8-85,165.4-196.6,103C124.9,438.3,148.1,462.4,181.3,469.8z"/>
	<path class="st13" d="M694.7,532H131.4c0,0,0-0.9,0,0c0,16.8-14.8,27.9,1.9,27.9h561.4C709.3,559.9,695.5,548.8,694.7,532
		C695.5,531.2,694.7,532,694.7,532z"/>
	<g>
		<path class="st0" d="M283.7,527.4c0,2.7-1.9,4.6-4.6,4.6h-37c-2.7,0-4.6-1.9-4.6-4.6l0,0c0-2.7,1.9-4.6,4.6-4.6h37
			C282,522.8,283.7,524.6,283.7,527.4L283.7,527.4z"/>
		<ellipse class="st0" cx="551.6" cy="526.5" rx="7.3" ry="7.4"/>
		<ellipse class="st0" cx="580.2" cy="526.5" rx="7.3" ry="7.4"/>
	</g>
</g>
</svg>
