<?xml version="1.0" encoding="utf-8"?>
<!-- Generator: Adobe Illustrator 27.4.1, SVG Export Plug-In . SVG Version: 6.00 Build 0)  -->
<svg version="1.1" id="Layer_1" xmlns="http://www.w3.org/2000/svg" xmlns:xlink="http://www.w3.org/1999/xlink" x="0px" y="0px"
	 viewBox="0 0 841.9 595.3" style="enable-background:new 0 0 841.9 595.3;" xml:space="preserve">
<style type="text/css">
	.st0{fill:#E5F4F3;}
	.st1{fill:#BEE5EB;}
	.st2{fill:#A0DBE6;}
	.st3{fill:#6DC4D8;}
	.st4{fill:#04243E;}
	.st5{fill:#116483;}
	.st6{fill:#48BFB1;}
	.st7{fill:#0DAAA6;}
	.st8{opacity:0.6;}
	.st9{fill:#F1F9F9;}
	.st10{fill:#F2F4DC;}
	.st11{fill:#D94026;}
	.st12{fill:#147B99;}
	.st13{fill:#AE2C24;}
</style>
<g>
	<path class="st0" d="M532.5,405.6V207.3c0-52-41.7-94.3-93.7-94.3h-40.6c-51.5,0-93.2,42.3-93.2,94.3v198.3L532.5,405.6
		L532.5,405.6z"/>
	<path class="st1" d="M438.8,113h-40.6c-10.3,0-17.3,1.6-28.2,4.3v288.3h162.6V207.3C532.5,155.3,490.2,113,438.8,113z"/>
	<g>
		<path class="st2" d="M532.5,405.6V207.3c0-52-42.3-94.3-93.7-94.3h-40.6c-10.3,0-19,1.6-28.2,4.3"/>
		<path class="st2" d="M480.5,228.4c0,34.7-28.2,62.3-62.3,62.3c-34.7,0-62.3-28.2-62.3-62.3c0-34.7,28.2-62.3,62.3-62.3
			C452.8,166.1,480.5,194.3,480.5,228.4z"/>
	</g>
	<g>
		<path class="st3" d="M456.6,295.1c0,20.6-17.3,37.4-37.9,37.4l0,0c-20.6,0-37.9-16.8-37.9-37.4v-73.2c0-20.6,17.3-37.4,37.9-37.4
			l0,0c20.6,0,37.9,16.8,37.9,37.4V295.1z"/>
		<rect x="402.5" y="215.9" class="st3" width="32.5" height="189.7"/>
	</g>
	<path class="st4" d="M500,218.6c0,13.5-10.8,24.4-24.4,24.4H356.4c-13.5,0-24.4-10.8-24.4-24.4l0,0c0-13.5,10.8-24.4,24.4-24.4
		h119.2C489.2,194.3,500,205.1,500,218.6L500,218.6z"/>
	<path class="st5" d="M500,218.6c0,13.5-10.8,24.4-24.4,24.4H356.4c-13.5,0-24.4-10.8-24.4-24.4l0,0c0-13.5,10.8-24.4,24.4-24.4
		h119.2C489.2,194.3,500,205.1,500,218.6L500,218.6z"/>
	<path class="st4" d="M477.8,199.7H358.6c-12.5,0-26.6,6-26.6,19c0,12.5,9.2,24.4,26.6,24.4h119.2c12.5,0,22.2-10.3,22.2-22.8
		S490.8,199.7,477.8,199.7z"/>
	<path class="st5" d="M480.5,214.3c0,34.7-28.2,62.3-62.3,62.3c-34.7,0-62.3-28.2-62.3-62.3c0-34.7,28.2-62.3,62.3-62.3
		C452.8,152,480.5,179.6,480.5,214.3z"/>
	<path class="st4" d="M374.3,170.4c24.4-24.4,63.9-24.4,88.3,0c24.4,24.4,24.4,63.9,0,88.3"/>
	<path class="st6" d="M461.5,214.3c0,23.8-19,42.8-42.8,42.8s-42.8-19-42.8-42.8s19.5-42.8,42.8-42.8
		C442,171.5,461.5,190.5,461.5,214.3z"/>
	<path class="st7" d="M418.2,171.5c23.8,0,42.8,19,42.8,42.8s-19,42.8-42.8,42.8"/>
	<g class="st8">
		<path class="st6" d="M398.7,194.8c10.8-10.8,28.2-10.8,39,0c10.8,10.8,10.8,28.2,0,39s-28.2,10.8-39,0
			C387.8,223,387.8,205.6,398.7,194.8z"/>
		<path class="st7" d="M398.7,233.8c-10.8-10.8-10.8-28.2,0-39c10.8-10.8,28.2-10.8,39,0"/>
	</g>
	<g class="st8">
		<path class="st6" d="M398.7,233.8c-10.8-10.8-10.8-28.2,0-39c10.8-10.8,28.2-10.8,39,0c10.8,10.8,10.8,28.2,0,39
			S409.5,244.7,398.7,233.8z"/>
		<path class="st7" d="M437.7,233.8c-10.8,10.8-28.2,10.8-39,0s-10.8-28.2,0-39"/>
	</g>
	<g>
		<path class="st9" d="M416,202.9c0,4.9-3.8,9.2-9.2,9.2c-4.9,0-9.2-3.8-9.2-9.2c0-5.4,4.9-8.7,9.8-8.7
			C412.2,194.3,416,198.1,416,202.9z"/>
		<path class="st9" d="M427.4,220.3c0,0.5-0.5,1.1-1.1,1.1c-0.5,0-1.1-0.5-1.1-1.1s0.5-1.1,1.1-1.1
			C426.8,218.6,427.4,219.7,427.4,220.3z"/>
		<path class="st9" d="M437.1,228.9c0,2.2-1.6,3.8-3.8,3.8c-2.2,0-3.8-1.6-3.8-3.8c0-2.2,1.6-3.8,3.8-3.8
			C435.5,225.2,437.1,226.8,437.1,228.9z"/>
	</g>
	<g>
		<path class="st10" d="M412.2,162.8c0,1.1-0.5,1.6-1.6,1.6s-1.6-0.5-1.6-1.6c0-1.1,0.5-1.6,1.6-1.6S412.2,162.3,412.2,162.8z"/>
		<path class="st10" d="M419.8,162.8c0,1.1-0.5,1.6-1.6,1.6c-1.1,0-1.6-0.5-1.6-1.6c0-1.1,0.5-1.6,1.6-1.6
			C419.2,161.2,419.8,162.3,419.8,162.8z"/>
		<path class="st10" d="M427.9,162.8c0,1.1-0.5,1.6-1.6,1.6c-1.1,0-1.6-0.5-1.6-1.6c0-1.1,0.5-1.6,1.6-1.6
			C426.8,161.2,427.9,162.3,427.9,162.8z"/>
		<path class="st10" d="M412.2,269.6c0,1.1-0.5,1.6-1.6,1.6s-1.6-0.5-1.6-1.6c0-1.1,0.5-1.6,1.6-1.6S412.2,269,412.2,269.6z"/>
		<circle class="st10" cx="418.2" cy="269.6" r="1.6"/>
		<circle class="st10" cx="426.3" cy="269.6" r="1.6"/>
	</g>
	<g>
		<ellipse transform="matrix(0.2298 -0.9732 0.9732 0.2298 190.5237 511.1375)" class="st11" cx="418.2" cy="135.2" rx="6" ry="6"/>
		<path class="st11" d="M584.5,411c0,9.8,8.7,16.3-1.1,16.3H254c-9.8,0-1.1-6.5-1.1-16.3l0,0c0-9.8,7.6-16.3,17.3-16.3h296.9
			C576.4,394.8,584.5,401.3,584.5,411L584.5,411z"/>
	</g>
	<path id="SVGCleanerId_0" class="st4" d="M472.9,296.7c-20.6-21.1-41.7-16.3-54.2-10.8c-12.5-5.4-33.6-10.3-54.2,10.8
		c-30.9,32-49.9,96.5-115.4,60.1c0,0,32.5,34.1,71,11.9c37.9-22.2,60.7-65,79.1-65c12.5,0,16.3,3.3,19.5,2.7c3.3,0.5,7-2.7,19.5-2.7
		c18.4,0,41.2,42.8,79.1,65c37.9,22.2,71-11.9,71-11.9C522.7,392.6,503.8,328.6,472.9,296.7z"/>
	<g>
		<path id="SVGCleanerId_0_1_" class="st4" d="M472.9,296.7c-20.6-21.1-41.7-16.3-54.2-10.8c-12.5-5.4-33.6-10.3-54.2,10.8
			c-30.9,32-49.9,96.5-115.4,60.1c0,0,32.5,34.1,71,11.9c37.9-22.2,60.7-65,79.1-65c12.5,0,16.3,3.3,19.5,2.7
			c3.3,0.5,7-2.7,19.5-2.7c18.4,0,41.2,42.8,79.1,65c37.9,22.2,71-11.9,71-11.9C522.7,392.6,503.8,328.6,472.9,296.7z"/>
	</g>
	<path class="st12" d="M282.7,374.7c40.1,1.6,56.9-45,81.8-70.4c20.6-21.1,41.7-16.3,54.2-10.8c12.5-5.4,33.6-10.3,54.2,10.8
		c24.9,26,42.3,72.6,81.8,70.4c19.5-4.3,33.1-17.9,33.1-17.9c-65,35.8-84-28.2-114.9-60.1c-20.6-21.1-41.7-16.3-54.2-10.8
		c-12.5-5.4-33.6-10.3-54.2,10.8c-30.9,32-49.9,96.5-115.4,60.1C249.6,356.3,263.2,370.4,282.7,374.7z"/>
	<path class="st13" d="M584,411H253.4c0,0,0-0.5,0,0c0,9.8-8.7,16.3,1.1,16.3H584C592.6,427.3,584.5,420.8,584,411
		C584.5,410.5,584,411,584,411z"/>
	<g>
		<path class="st0" d="M342.8,408.3c0,1.6-1.1,2.7-2.7,2.7h-21.7c-1.6,0-2.7-1.1-2.7-2.7l0,0c0-1.6,1.1-2.7,2.7-2.7h21.7
			C341.8,405.6,342.8,406.7,342.8,408.3L342.8,408.3z"/>
		<circle class="st0" cx="500" cy="407.8" r="4.3"/>
		<circle class="st0" cx="516.8" cy="407.8" r="4.3"/>
	</g>
</g>
</svg>
